PathFileType	4	(X/Y/Z)	Patient4_TMGait_0pt8_01_left_51.trc.trc
DataRate	CameraRate	NumFrames	NumMarkers	Units	OrigDataRate	OrigDataStartFrame	OrigNumFrames
89.743589743590	89.743589743590	6	33	mm	89.743589743590	71	       141
Frame#	Time	Sacral			L.Shoulder			Chest			R.Shoulder			Neck			R.ASIS			L.ASIS			R.Thigh.Superior			R.Thigh.Lateral			R.Thigh.Inferior			R.Patella			L.Thigh.Superior			L.Thigh.Lateral			L.Thigh.Inferior			L.Patella			L.Shank.Superior			L.Shank.Lateral			L.Shank.Inferior			R.Shank.Superior			R.Shank.Lateral			R.Shank.Inferior			R.Heel			R.Midfoot.Superior			R.Midfoot.Lateral			R.Toe			L.Heel			L.Midfoot.Lateral			L.Midfoot.Superior			L.Toe			L.Elbow			L.Wrist			R.Elbow			R.Wrist			
		X1	Y1	Z1	X2	Y2	Z2	X3	Y3	Z3	X4	Y4	Z4	X5	Y5	Z5	X6	Y6	Z6	X7	Y7	Z7	X8	Y8	Z8	X9	Y9	Z9	X10	Y10	Z10	X11	Y11	Z11	X12	Y12	Z12	X13	Y13	Z13	X14	Y14	Z14	X15	Y15	Z15	X16	Y16	Z16	X17	Y17	Z17	X18	Y18	Z18	X19	Y19	Z19	X20	Y20	Z20	X21	Y21	Z21	X22	Y22	Z22	X23	Y23	Z23	X24	Y24	Z24	X25	Y25	Z25	X26	Y26	Z26	X27	Y27	Z27	X28	Y28	Z28	X29	Y29	Z29	X30	Y30	Z30	X31	Y31	Z31	X32	Y32	Z32	X33	Y33	Z33	

71	57.650000000000	877.845975030993	1002.779218153004	446.441777142354	1102.111589825251	1431.054517812378	297.438375874168	1178.692783927455	1347.194148467673	466.355588897858	1076.354333678108	1417.097874100650	631.694602154527	1062.954756282628	1484.303915975360	451.924702268487	1093.942402729253	934.741860684378	581.594913597481	1098.236622922452	951.491849421016	305.545258061570	1171.838380153107	767.629135354341	556.611905362415	1132.673270331634	647.203201614202	634.498799406665	1222.170112343859	609.713129286444	554.840605582875	1259.373801486005	528.238466655841	575.555174037930	1086.842976273924	721.803674878694	332.702648275753	963.117785110850	633.782152400830	271.449792545063	1018.558209777280	537.040824176502	335.497000161672	1002.817568481233	472.885973478331	344.542359402461	967.554647641199	409.534925970432	339.384160169422	863.888248877585	305.047660999770	294.277442849165	903.770140686385	190.095969011147	366.949507728795	1243.076298626358	439.569299978772	587.730911656725	1190.835645903040	326.940820493451	654.317072569745	1260.878694614479	240.107744598560	604.864741359399	1170.376928487443	50.802535209926	580.809205437701	1331.912520829156	129.379122100887	620.732683473201	1255.738539216130	49.647359326420	653.426344921643	1457.036045590506	94.864386798148	644.252223399666	766.379374635135	40.308386182291	420.098067911508	835.825390068105	35.922166605665	336.152455069102	921.259798204602	95.622058871810	358.426782275643	1047.509129897755	41.189465639504	323.584228407502	1186.951654967949	1125.554626159802	122.320436682018	1440.773574413618	1106.482726745886	156.064876543826	896.254820950014	1117.446240197870	716.668759949282	826.999981497329	867.518471302765	732.459177310601	
72	57.661142857143	879.694339234437	1000.194857253810	448.179986888983	1101.994070811412	1429.092648828600	298.989348468244	1179.046762465308	1345.712431037819	467.904196099884	1076.592664666788	1415.617945411202	633.252099909762	1063.024711010597	1482.263231483397	453.514861756229	1095.971761495211	932.245491944047	583.152391352907	1100.142770794819	949.624827829010	307.025927780691	1171.967117895236	762.737370278589	558.220773147787	1130.463983752041	642.729428189743	635.341485908559	1219.335584656170	604.674189417730	555.169728043514	1255.679957757317	524.335206549210	575.257980270985	1086.851148982061	719.673302032692	333.777235186798	962.239523698774	632.652194323506	272.369618748059	1016.620211364842	535.298115667257	336.435976671774	1000.247739393306	470.851743154867	345.321761907357	963.863681038454	407.961168161889	340.040609740772	858.484111138398	305.169174085647	294.603566857826	896.425014875264	189.486526748590	367.092826323999	1241.287523069297	435.756966297326	587.672209250752	1190.714402318082	321.658358833753	652.921239915348	1263.379485318521	236.626714881592	603.679970017348	1177.046582255521	46.190891170677	578.269713416983	1337.067657067452	126.856755840591	618.856063081991	1261.960221672739	46.572012841793	651.409589255003	1462.749291605647	94.367268694274	643.304053039776	757.357827743164	40.687673073186	419.791161450745	826.917829144642	35.957390641810	336.002749743831	912.416898103738	95.590593408348	358.343266397530	1038.596698958893	40.974825553916	323.534518671042	1188.066594927459	1124.638833805491	123.216350011563	1441.526514342809	1116.865779190043	159.278993091153	890.769107149081	1120.594802104249	717.481357279071	816.413086305826	872.092671420004	732.098646219580	
73	57.672285714286	881.657910627359	997.630679950841	450.228018493767	1101.763055834015	1427.107984273609	300.597861961425	1179.411195761936	1344.331893380588	469.509337387462	1076.907217340256	1414.196025876475	634.930704562402	1063.095024455178	1480.273542808395	455.211067841553	1098.147686095924	929.810431283877	584.902756164376	1102.160488682969	947.736459064085	308.720672253329	1172.677238069221	758.424832985714	559.961504260009	1128.866692497252	638.599477530536	635.945553750556	1217.439815960976	600.324545458059	555.614046805608	1252.704187162199	520.574212119982	574.983168287109	1087.381058091980	717.595464717370	335.032965462076	962.006828283689	631.436808752499	273.530913047605	1015.479937631400	533.495033004133	337.552763028539	998.456148522739	468.659302297967	346.300266334410	960.854923240567	406.222361142510	340.849795029740	853.600654088807	305.373291128053	295.029145349299	889.334905566615	188.888346248002	367.256388944819	1239.571510590519	431.895541887559	587.447751558521	1189.612214303713	316.842628070151	651.215666229631	1263.973558207815	233.058495379596	602.184645053434	1179.809056917002	42.946613223841	575.522939722073	1339.115100703346	123.732611568974	616.487367102048	1264.231814839936	44.040112038116	649.157264315350	1464.896252252804	91.837426934014	641.851171550631	748.339297978626	41.301712127737	419.412182658455	818.039374673894	36.062520863700	335.815831544011	903.659496188701	95.597444791529	358.203807224377	1029.716730684399	40.741100711493	323.473763638351	1188.695612383844	1123.361443358251	124.365745616057	1441.369176471884	1126.114259448277	162.568654980657	886.446882733991	1123.110214769605	718.348096659276	807.415593530035	876.010460346445	731.836885465199	
74	57.683428571429	883.710351612126	995.190964068659	452.543498522932	1101.481261044949	1425.172254887354	302.269568981255	1179.814618965085	1343.099795523144	471.181686800896	1077.323088586419	1412.878311558703	636.734186272115	1063.202757975979	1478.413028286471	457.015113914185	1100.429010803968	927.551487878605	586.846675916492	1104.262080415597	945.888338048481	310.629645567605	1173.978757023430	754.827386309642	561.840231831100	1127.892360015880	634.933175759086	636.330308479745	1216.549211642423	596.779543148937	556.241979843771	1250.539842705273	517.086392963276	574.757079768601	1088.411453376678	715.631557329962	336.444677908918	962.382907548120	630.184154549249	274.927524282628	1015.148967439538	531.675799959887	338.804513142858	997.466787995172	466.342397104738	347.418492720327	958.525612208499	404.367062150754	341.773992578053	849.237952179643	305.724679662019	295.548223211811	882.523687096253	188.365168025100	367.408558377171	1238.068703659448	428.136979701819	587.090419051126	1187.839280900147	312.599974644100	649.409256386670	1262.951586595179	229.476996368132	600.506998109060	1179.005761917156	40.905713186277	572.839722800047	1338.412038889180	120.101759415348	613.805787213368	1262.983015505754	41.993341994377	646.891549663623	1463.933203835481	87.489127597977	639.980730731867	739.344479244144	42.251830088365	418.960628100526	809.196287504352	36.280011544866	335.591475968524	895.028238458611	95.656460764513	357.979407514735	1020.872611522303	40.495771706990	323.401910446016	1188.802332115629	1121.736555642102	125.792035777159	1440.389436782802	1134.128157817578	165.898414823609	883.363243548862	1124.889671545462	719.275325630332	800.062983337986	879.166810635495	731.728473908567	
75	57.694571428571	885.817650927524	992.984318806972	455.066566554829	1101.213168787523	1423.365242023217	304.008342572038	1180.285365164506	1342.066282793922	472.929277256905	1077.864741155421	1411.721539963950	638.660234223014	1063.382678909576	1476.764672010975	458.923900348339	1102.777060039025	925.587148033564	588.980475805671	1106.417633052264	944.155082627734	312.745570467586	1175.842376758247	752.030570797388	563.860147850659	1127.535769752942	631.841665205134	636.567926166101	1216.648119801060	594.095179836164	557.105641986895	1249.214959400617	513.984869936284	574.618020181894	1089.898778020716	713.853236125055	337.985985139864	963.325435927165	628.946478832758	276.539904468254	1015.640025814727	529.894707106814	340.137661900680	997.310661234708	463.940311501155	348.595821402130	956.876840529440	402.455392894706	342.759328918660	845.399365585892	306.300293246258	296.150239607481	876.027695231747	187.993218228182	367.510968629884	1236.879805372358	424.636235929969	586.661095206460	1185.718919137369	309.032038731486	647.733594535968	1260.655004595767	225.999753911968	598.791755007881	1175.170580800005	39.866680946700	570.451956397668	1335.404734230991	116.163594002717	611.026350341565	1258.807084888490	40.386665696614	644.815222957424	1460.411840892202	81.759621325579	637.840426934721	730.407560259500	43.659544322580	418.439298498863	800.399312786689	36.668119978177	335.331027290530	886.575299367998	95.782093951604	357.638397043717	1012.065900153820	40.247910765237	323.320253086464	1188.347539333214	1119.789713703745	127.523455475352	1438.674704951691	1140.821111040350	169.242256119881	881.563096823467	1125.880269659570	720.278103193454	794.425539478489	881.486453177519	731.820675632058	
76	57.705714285714	887.940358529232	991.114981154551	457.729020172945	1101.017509157826	1421.770046254292	305.814769770374	1180.846988310238	1341.282509775600	474.755523004778	1078.550738117310	1410.790057270524	640.699012593601	1063.662027086178	1475.410163164933	460.927952053545	1105.157125882104	924.027180913154	591.295737056870	1108.594381441558	942.619463152880	315.053801723589	1178.200950954396	750.070417815158	566.017202091302	1127.780405232251	629.420129210127	636.770691489158	1217.639847570168	592.267787638122	558.232273254082	1248.686953587247	511.356396286766	574.618300921066	1091.787566256011	712.335882196616	339.633836471901	964.800234704469	627.772984360463	278.337043528621	1016.976024774476	528.209974520945	341.494688963106	998.032830124264	461.494823807097	349.737947414008	955.924653902847	400.553012088661	343.740143058231	842.102440641817	307.183925251593	296.820891997147	869.901296752239	187.856888026272	367.522876926463	1236.049054351457	421.531695541319	586.241221958526	1183.535486537546	306.215642276304	646.408207417728	1257.425798952850	222.763057608731	597.179169683049	1168.952994981848	39.604641315756	568.521700779320	1330.569383773122	112.181041680202	608.368325839375	1252.379126334076	39.180672231240	643.084720614617	1454.912428000653	75.236212826947	635.621996404313	721.579882093043	45.664988913256	417.853714022292	791.666845687236	37.304447537910	335.037062403091	878.364589109018	95.990279332432	357.149972942589	1003.295708129520	40.005603680486	323.231801187713	1187.291135016521	1117.559872295164	129.591274900546	1436.309921579011	1146.122417535127	172.583542373065	881.058591124780	1126.084183015653	721.378073655946	790.582185823661	882.926490125688	732.152080734968	
